<svg xmlns="http://www.w3.org/2000/svg" width="1920" height="1920" viewBox="0 0 1920 1920" version="1.1"><path d="M 632.145 1.068 L 629.790 2.013 626.873 4.091 L 623.955 6.168 621.977 10.044 L 620 13.920 620 316.960 L 620 620 316.960 620 L 13.920 620 10.055 621.972 L 6.189 623.944 4.094 626.607 L 1.999 629.271 0.957 632.885 L -0.085 636.500 0.208 962.073 L 0.500 1287.646 3.251 1291.803 L 6.002 1295.960 9.961 1297.980 L 13.920 1300 316.960 1300 L 620 1300 620 1603.040 L 620 1906.080 622.020 1910.039 L 624.040 1913.998 628.197 1916.749 L 632.354 1919.500 958.852 1919.755 L 1285.350 1920.009 1289.788 1917.860 L 1294.227 1915.712 1297.113 1911.160 L 1300 1906.608 1300 1603.304 L 1300 1300 1603.304 1300 L 1906.608 1300 1911.076 1297.167 L 1915.543 1294.334 1918.271 1289.075 L 1921 1283.815 1921 958.241 L 1921 632.667 1920.361 633.306 L 1919.722 633.945 1917.693 629.844 L 1915.664 625.743 1911.136 622.871 L 1906.608 620 1603.304 620 L 1300 620 1300 316.960 L 1300 13.920 1297.980 9.961 L 1295.960 6.002 1291.803 3.251 L 1287.646 0.500 961.073 0.311 L 634.500 0.122 632.145 1.068 M 0.494 960 L 0.494 1286.500 0.750 1123.250 L 1.006 960 0.750 796.750 L 0.494 633.500 0.494 960 M 466.500 763.647 L 463.500 763.995 456 765.071 L 448.500 766.147 438 769.139 L 427.500 772.131 419.708 775.508 L 411.916 778.884 403.592 783.421 L 395.267 787.959 387.384 793.601 L 379.500 799.242 375 803.297 L 370.500 807.353 362.686 815.926 L 354.872 824.500 349.509 832.629 L 344.147 840.759 340.668 847.667 L 337.189 854.575 334.635 860.859 L 332.082 867.142 330.144 874.321 L 328.206 881.500 326.871 889 L 325.536 896.500 325.548 912 L 325.560 927.500 327.300 936.182 L 329.039 944.864 331.590 952.682 L 334.141 960.500 338.001 968.740 L 341.861 976.980 347.563 985.740 L 353.264 994.500 359.838 1002.393 L 366.412 1010.287 374.956 1017.760 L 383.500 1025.234 392.500 1031.199 L 401.500 1037.165 411.500 1041.982 L 421.500 1046.799 430.685 1049.820 L 439.869 1052.842 448.185 1054.671 L 456.500 1056.500 480.500 1056.471 L 504.500 1056.442 516.500 1054.170 L 528.500 1051.897 537.186 1048.989 L 545.871 1046.081 556.686 1040.656 L 567.500 1035.230 569.856 1033.320 L 572.212 1031.410 558.603 1004.205 L 544.993 977 544.618 977 L 544.242 977 538.496 980.460 L 532.750 983.921 524.625 987.041 L 516.500 990.161 509 991.625 L 501.500 993.088 492 993.670 L 482.500 994.251 471.350 992.606 L 460.201 990.960 451.581 988.083 L 442.961 985.205 435.950 981.040 L 428.939 976.874 422.375 970.734 L 415.812 964.595 411.427 958.450 L 407.043 952.306 403.633 945.403 L 400.223 938.500 398.594 933.010 L 396.965 927.519 395.964 918.682 L 394.963 909.845 396.030 901.173 L 397.097 892.500 399.954 884.180 L 402.810 875.861 407.655 867.738 L 412.500 859.615 420.029 852.058 L 427.559 844.500 436.029 839.731 L 444.500 834.961 452.328 832.472 L 460.157 829.983 469.328 828.496 L 478.500 827.008 488.643 827.004 L 498.786 827 506.414 828.577 L 514.042 830.155 521.771 832.990 L 529.500 835.826 534 837.854 L 538.500 839.882 541.710 842.014 L 544.920 844.146 558.460 817.080 L 572 790.014 572 789.544 L 572 789.075 566.250 785.176 L 560.500 781.277 555.500 778.753 L 550.500 776.228 541 773.032 L 531.500 769.835 522.565 767.869 L 513.630 765.902 502.629 764.451 L 491.627 763 480.564 763.150 L 469.500 763.300 466.500 763.647 M 687.500 764.051 L 681.500 764.848 673 767.542 L 664.500 770.235 658.500 773.235 L 652.500 776.236 646 780.825 L 639.500 785.414 634.129 790.457 L 628.758 795.500 624.356 801.660 L 619.953 807.819 616.590 815.160 L 613.226 822.500 611.501 830 L 609.775 837.500 609.744 848.500 L 609.712 859.500 611.343 865.593 L 612.973 871.685 615.110 876.517 L 617.248 881.348 620.738 886.805 L 624.228 892.261 631.660 900.040 L 639.092 907.819 647.296 913.292 L 655.500 918.765 662.500 922.386 L 669.500 926.008 688 934.903 L 706.500 943.798 713.462 948.649 L 720.423 953.500 723.397 957.745 L 726.372 961.990 726.808 968.023 L 727.244 974.055 725.931 978.745 L 724.619 983.434 720.466 987.587 L 716.314 991.739 710.640 993.862 L 704.967 995.984 695.949 997.006 L 686.931 998.027 680.215 996.982 L 673.500 995.938 668 994.371 L 662.500 992.804 651.500 987.480 L 640.500 982.156 634.500 978.514 L 628.500 974.871 622.694 970.325 L 616.888 965.779 616.585 966.140 L 616.282 966.500 600.601 992.924 L 584.920 1019.348 585.390 1020.574 L 585.860 1021.799 592.324 1026.412 L 598.788 1031.025 612.345 1038.064 L 625.901 1045.104 633.778 1047.978 L 641.655 1050.853 654.078 1053.558 L 666.500 1056.264 687.500 1056.739 L 708.500 1057.214 718 1055.564 L 727.500 1053.915 738 1050.405 L 748.500 1046.896 755.700 1043.016 L 762.901 1039.136 768.461 1035.029 L 774.021 1030.922 779.583 1024.211 L 785.145 1017.500 789.014 1009.500 L 792.882 1001.500 795.051 993.500 L 797.219 985.500 797.715 971.500 L 798.211 957.500 796.532 951.071 L 794.853 944.643 792.307 939.571 L 789.761 934.500 785.498 928.500 L 781.235 922.500 775.367 916.925 L 769.500 911.350 761.343 905.308 L 753.186 899.266 742.343 893.725 L 731.500 888.184 717.500 882.024 L 703.500 875.864 694 870.506 L 684.500 865.148 680.120 861.385 L 675.740 857.621 674.370 854.343 L 673 851.064 673 846.500 L 673 841.936 674.549 838.218 L 676.098 834.500 679.758 830.744 L 683.418 826.987 688.916 824.930 L 694.413 822.873 702.457 822.317 L 710.500 821.761 719.394 823.440 L 728.289 825.119 738.894 829.090 L 749.500 833.061 756.474 837.084 L 763.449 841.107 764.810 839.303 L 766.172 837.500 778.087 813.757 L 790.001 790.013 785.751 786.874 L 781.500 783.734 772.500 779.428 L 763.500 775.123 752.613 771.599 L 741.725 768.076 734.113 766.562 L 726.500 765.049 718.026 764.024 L 709.552 763 701.526 763.127 L 693.500 763.254 687.500 764.051 M 151.286 769.750 L 150.635 771.500 94.700 910 L 38.765 1048.500 38.262 1050.263 L 37.760 1052.026 72.497 1051.763 L 107.233 1051.500 116.111 1027.500 L 124.989 1003.500 126.577 999.250 L 128.165 995 181.995 995 L 235.825 995 238.378 1001.750 L 240.930 1008.500 248.864 1030 L 256.797 1051.500 291.399 1051.763 L 326 1052.026 326 1051.384 L 326 1050.743 307.399 1004.621 L 288.798 958.500 255.302 875.500 L 221.806 792.500 216.794 780.250 L 211.782 768 181.860 768 L 151.937 768 151.286 769.750 M 893.177 769.384 L 893.500 770.768 952.500 911.387 L 1011.500 1052.005 1037.346 1051.752 L 1063.193 1051.500 1122.533 910 L 1181.873 768.500 1145.749 768.237 L 1109.625 767.975 1108.984 768.737 L 1108.342 769.500 1072.995 861.774 L 1037.648 954.048 1036.944 953.274 L 1036.239 952.500 1000.877 860.250 L 965.515 768 929.184 768 L 892.853 768 893.177 769.384 M 1193 910 L 1193 1052 1225.500 1052 L 1258 1052 1258 910 L 1258 768 1225.500 768 L 1193 768 1193 910 M 1299 910 L 1299 1052 1380.500 1052 L 1462 1052 1462 1024 L 1462 996 1413 996 L 1364 996 1364 967 L 1364 938 1411 938 L 1458 938 1458 910 L 1458 882 1411 882 L 1364 882 1364 853.500 L 1364 825 1413 825 L 1462 825 1462 796.500 L 1462 768 1380.500 768 L 1299 768 1299 910 M 1473.491 769.238 L 1473.928 770.500 1512.009 904.500 L 1550.090 1038.500 1552.091 1045.262 L 1554.092 1052.025 1590.273 1051.762 L 1626.455 1051.500 1648.942 972.648 L 1671.430 893.796 1672.194 895.648 L 1672.959 897.500 1693.034 968 L 1713.108 1038.500 1715.097 1045.250 L 1717.085 1052 1752.975 1052 L 1788.865 1052 1789.398 1050.250 L 1789.931 1048.500 1829.465 909.693 L 1869 770.887 1869 769.443 L 1869 768 1833.622 768 L 1798.244 768 1773.877 865.502 L 1749.510 963.003 1748.526 962.675 L 1747.543 962.348 1721.815 865.424 L 1696.087 768.500 1696.043 768.250 L 1696 768 1671.646 768 L 1647.292 768 1644.801 777.250 L 1642.311 786.500 1618.949 874.765 L 1595.588 963.029 1594.584 962.695 L 1593.580 962.360 1569.362 865.430 L 1545.144 768.500 1509.099 768.238 L 1473.053 767.975 1473.491 769.238 M 166 896.643 L 150.500 937.239 150.167 938.120 L 149.833 939 182 939 L 214.167 939 213.833 938.098 L 213.500 937.196 198 896.615 L 182.500 856.033 182 856.040 L 181.500 856.047 166 896.643" stroke="none" fill="#fbfbfb" fill-rule="evenodd"/><path d="M 0.039 317.250 L 0.078 634.500 1.583 631.030 L 3.089 627.560 4.794 625.673 L 6.500 623.787 10.210 621.894 L 13.920 620 316.960 620 L 620 620 620 316.960 L 620 13.920 621.977 10.044 L 623.955 6.168 626.873 4.091 L 629.790 2.013 632.145 1.070 L 634.500 0.127 317.250 0.063 L 0 0 0.039 317.250 M 1287.855 1.070 L 1290.210 2.013 1293.127 4.091 L 1296.045 6.168 1298.023 10.044 L 1300 13.920 1300 316.960 L 1300 620 1603.304 620 L 1906.608 620 1911.136 622.871 L 1915.664 625.743 1917.831 630.121 L 1919.998 634.500 1919.999 317.250 L 1920 0 1602.750 0.063 L 1285.500 0.127 1287.855 1.070 M 466.500 763.647 L 463.500 763.995 456 765.071 L 448.500 766.147 438 769.139 L 427.500 772.131 419.708 775.508 L 411.916 778.884 403.592 783.421 L 395.267 787.959 387.384 793.601 L 379.500 799.242 375 803.297 L 370.500 807.353 362.686 815.926 L 354.872 824.500 349.509 832.629 L 344.147 840.759 340.668 847.667 L 337.189 854.575 334.635 860.859 L 332.082 867.142 330.144 874.321 L 328.206 881.500 326.871 889 L 325.536 896.500 325.548 912 L 325.560 927.500 327.300 936.182 L 329.039 944.864 331.590 952.682 L 334.141 960.500 338.001 968.740 L 341.861 976.980 347.563 985.740 L 353.264 994.500 359.838 1002.393 L 366.412 1010.287 374.956 1017.760 L 383.500 1025.234 392.500 1031.199 L 401.500 1037.165 411.500 1041.982 L 421.500 1046.799 430.685 1049.820 L 439.869 1052.842 448.185 1054.671 L 456.500 1056.500 480.500 1056.471 L 504.500 1056.442 516.500 1054.170 L 528.500 1051.897 537.186 1048.989 L 545.871 1046.081 556.686 1040.656 L 567.500 1035.230 569.856 1033.320 L 572.212 1031.410 558.603 1004.205 L 544.993 977 544.618 977 L 544.242 977 538.496 980.460 L 532.750 983.921 524.625 987.041 L 516.500 990.161 509 991.625 L 501.500 993.088 492 993.670 L 482.500 994.251 471.350 992.606 L 460.201 990.960 451.581 988.083 L 442.961 985.205 435.950 981.040 L 428.939 976.874 422.375 970.734 L 415.812 964.595 411.427 958.450 L 407.043 952.306 403.633 945.403 L 400.223 938.500 398.594 933.010 L 396.965 927.519 395.964 918.682 L 394.963 909.845 396.030 901.173 L 397.097 892.500 399.954 884.180 L 402.810 875.861 407.655 867.738 L 412.500 859.615 420.029 852.058 L 427.559 844.500 436.029 839.731 L 444.500 834.961 452.328 832.472 L 460.157 829.983 469.328 828.496 L 478.500 827.008 488.643 827.004 L 498.786 827 506.414 828.577 L 514.042 830.155 521.771 832.990 L 529.500 835.826 534 837.854 L 538.500 839.882 541.710 842.014 L 544.920 844.146 558.460 817.080 L 572 790.014 572 789.544 L 572 789.075 566.250 785.176 L 560.500 781.277 555.500 778.753 L 550.500 776.228 541 773.032 L 531.500 769.835 522.565 767.869 L 513.630 765.902 502.629 764.451 L 491.627 763 480.564 763.150 L 469.500 763.300 466.500 763.647 M 687.500 764.051 L 681.500 764.848 673 767.542 L 664.500 770.235 658.500 773.235 L 652.500 776.236 646 780.825 L 639.500 785.414 634.129 790.457 L 628.758 795.500 624.356 801.660 L 619.953 807.819 616.590 815.160 L 613.226 822.500 611.501 830 L 609.775 837.500 609.744 848.500 L 609.712 859.500 611.343 865.593 L 612.973 871.685 615.110 876.517 L 617.248 881.348 620.738 886.805 L 624.228 892.261 631.660 900.040 L 639.092 907.819 647.296 913.292 L 655.500 918.765 662.500 922.386 L 669.500 926.008 688 934.903 L 706.500 943.798 713.462 948.649 L 720.423 953.500 723.397 957.745 L 726.372 961.990 726.808 968.023 L 727.244 974.055 725.931 978.745 L 724.619 983.434 720.466 987.587 L 716.314 991.739 710.640 993.862 L 704.967 995.984 695.949 997.006 L 686.931 998.027 680.215 996.982 L 673.500 995.938 668 994.371 L 662.500 992.804 651.500 987.480 L 640.500 982.156 634.500 978.514 L 628.500 974.871 622.694 970.325 L 616.888 965.779 616.585 966.140 L 616.282 966.500 600.601 992.924 L 584.920 1019.348 585.390 1020.574 L 585.860 1021.799 592.324 1026.412 L 598.788 1031.025 612.345 1038.064 L 625.901 1045.104 633.778 1047.978 L 641.655 1050.853 654.078 1053.558 L 666.500 1056.264 687.500 1056.739 L 708.500 1057.214 718 1055.564 L 727.500 1053.915 738 1050.405 L 748.500 1046.896 755.700 1043.016 L 762.901 1039.136 768.461 1035.029 L 774.021 1030.922 779.583 1024.211 L 785.145 1017.500 789.014 1009.500 L 792.882 1001.500 795.051 993.500 L 797.219 985.500 797.715 971.500 L 798.211 957.500 796.532 951.071 L 794.853 944.643 792.307 939.571 L 789.761 934.500 785.498 928.500 L 781.235 922.500 775.367 916.925 L 769.500 911.350 761.343 905.308 L 753.186 899.266 742.343 893.725 L 731.500 888.184 717.500 882.024 L 703.500 875.864 694 870.506 L 684.500 865.148 680.120 861.385 L 675.740 857.621 674.370 854.343 L 673 851.064 673 846.500 L 673 841.936 674.549 838.218 L 676.098 834.500 679.758 830.744 L 683.418 826.987 688.916 824.930 L 694.413 822.873 702.457 822.317 L 710.500 821.761 719.394 823.440 L 728.289 825.119 738.894 829.090 L 749.500 833.061 756.474 837.084 L 763.449 841.107 764.810 839.303 L 766.172 837.500 778.087 813.757 L 790.001 790.013 785.751 786.874 L 781.500 783.734 772.500 779.428 L 763.500 775.123 752.613 771.599 L 741.725 768.076 734.113 766.562 L 726.500 765.049 718.026 764.024 L 709.552 763 701.526 763.127 L 693.500 763.254 687.500 764.051 M 151.286 769.750 L 150.635 771.500 94.700 910 L 38.765 1048.500 38.262 1050.263 L 37.760 1052.026 72.497 1051.763 L 107.233 1051.500 116.111 1027.500 L 124.989 1003.500 126.577 999.250 L 128.165 995 181.995 995 L 235.825 995 238.378 1001.750 L 240.930 1008.500 248.864 1030 L 256.797 1051.500 291.399 1051.763 L 326 1052.026 326 1051.384 L 326 1050.743 307.399 1004.621 L 288.798 958.500 255.302 875.500 L 221.806 792.500 216.794 780.250 L 211.782 768 181.860 768 L 151.937 768 151.286 769.750 M 893.177 769.384 L 893.500 770.768 952.500 911.387 L 1011.500 1052.005 1037.346 1051.752 L 1063.193 1051.500 1122.533 910 L 1181.873 768.500 1145.749 768.237 L 1109.625 767.975 1108.984 768.737 L 1108.342 769.500 1072.995 861.774 L 1037.648 954.048 1036.944 953.274 L 1036.239 952.500 1000.877 860.250 L 965.515 768 929.184 768 L 892.853 768 893.177 769.384 M 1193 910 L 1193 1052 1225.500 1052 L 1258 1052 1258 910 L 1258 768 1225.500 768 L 1193 768 1193 910 M 1299 910 L 1299 1052 1380.500 1052 L 1462 1052 1462 1024 L 1462 996 1413 996 L 1364 996 1364 967 L 1364 938 1411 938 L 1458 938 1458 910 L 1458 882 1411 882 L 1364 882 1364 853.500 L 1364 825 1413 825 L 1462 825 1462 796.500 L 1462 768 1380.500 768 L 1299 768 1299 910 M 1473.491 769.238 L 1473.928 770.500 1512.009 904.500 L 1550.090 1038.500 1552.091 1045.262 L 1554.092 1052.025 1590.273 1051.762 L 1626.455 1051.500 1648.942 972.648 L 1671.430 893.796 1672.194 895.648 L 1672.959 897.500 1693.034 968 L 1713.108 1038.500 1715.097 1045.250 L 1717.085 1052 1752.975 1052 L 1788.865 1052 1789.398 1050.250 L 1789.931 1048.500 1829.465 909.693 L 1869 770.887 1869 769.443 L 1869 768 1833.622 768 L 1798.244 768 1773.877 865.502 L 1749.510 963.003 1748.526 962.675 L 1747.543 962.348 1721.815 865.424 L 1696.087 768.500 1696.043 768.250 L 1696 768 1671.646 768 L 1647.292 768 1644.801 777.250 L 1642.311 786.500 1618.949 874.765 L 1595.588 963.029 1594.584 962.695 L 1593.580 962.360 1569.362 865.430 L 1545.144 768.500 1509.099 768.238 L 1473.053 767.975 1473.491 769.238 M 166 896.643 L 150.500 937.239 150.167 938.120 L 149.833 939 182 939 L 214.167 939 213.833 938.098 L 213.500 937.196 198 896.615 L 182.500 856.033 182 856.040 L 181.500 856.047 166 896.643 M 0.063 1602.750 L 0 1920 317.250 1919.937 L 634.500 1919.873 632.145 1918.930 L 629.790 1917.987 626.873 1915.909 L 623.955 1913.832 621.977 1909.956 L 620 1906.080 620 1603.040 L 620 1300 316.960 1300 L 13.920 1300 10.044 1298.023 L 6.168 1296.045 4.091 1293.127 L 2.013 1290.210 1.070 1287.855 L 0.127 1285.500 0.063 1602.750 M 1917.617 1290.132 L 1915.733 1294.213 1911.171 1297.107 L 1906.608 1300 1603.304 1300 L 1300 1300 1300 1603.304 L 1300 1906.608 1297.129 1911.136 L 1294.257 1915.664 1289.879 1917.831 L 1285.500 1919.998 1602.750 1919.999 L 1920 1920 1920 1603 L 1920 1286 1919.750 1286.026 L 1919.500 1286.052 1917.617 1290.132" stroke="none" fill="#0484b4" fill-rule="evenodd"/></svg>