<svg xmlns="http://www.w3.org/2000/svg" width="1920" height="1920" viewBox="0 0 1920 1920" version="1.1"><path d="M 781.791 421.983 L 779.083 422.805 776.127 424.909 L 773.172 427.014 771.086 431.323 L 769 435.631 769 602.316 L 769 769 602.316 769 L 435.631 769 431.250 771.121 L 426.868 773.242 424.184 777.298 L 421.500 781.354 421.500 960 L 421.500 1138.646 424.184 1142.702 L 426.868 1146.758 431.250 1148.879 L 435.631 1151 602.307 1151 L 768.983 1151 769.241 1318.823 L 769.500 1486.647 771.884 1490.126 L 774.269 1493.606 777.884 1496.053 L 781.500 1498.500 960 1498.500 L 1138.500 1498.500 1142.116 1496.053 L 1145.731 1493.606 1148.116 1490.126 L 1150.500 1486.647 1150.759 1318.823 L 1151.017 1151 1317.693 1151 L 1484.369 1151 1488.750 1148.879 L 1493.132 1146.758 1495.816 1142.702 L 1498.500 1138.646 1498.500 960 L 1498.500 781.354 1495.816 777.298 L 1493.132 773.242 1488.750 771.121 L 1484.369 769 1317.684 769 L 1151 769 1151 602.316 L 1151 435.631 1148.879 431.250 L 1146.758 426.868 1142.702 424.184 L 1138.646 421.500 961.573 421.330 L 784.500 421.161 781.791 421.983 M 670.117 851.986 L 662.734 853.977 655.112 857.273 L 647.490 860.568 641.575 864.494 L 635.661 868.420 629.678 873.958 L 623.696 879.497 619.723 884.875 L 615.750 890.253 611.890 897.877 L 608.031 905.500 605.965 913.500 L 603.898 921.500 603.898 932.500 L 603.898 943.500 605.957 951.442 L 608.016 959.384 611.532 966.498 L 615.047 973.613 621.347 981.580 L 627.646 989.546 634.224 994.781 L 640.802 1000.015 649.151 1004.447 L 657.500 1008.879 666.500 1011.592 L 675.500 1014.305 690.500 1014.326 L 705.500 1014.347 712.845 1012.667 L 720.190 1010.988 726.584 1008.430 L 732.978 1005.872 737.489 1003.350 L 742 1000.829 742 1000.402 L 742 999.975 734.494 984.988 L 726.987 970 726.620 970 L 726.252 970 721.876 972.436 L 717.500 974.871 710.020 976.936 L 702.540 979 695.020 978.983 L 687.500 978.965 680.826 977.551 L 674.153 976.136 668.362 973.318 L 662.571 970.500 657.428 965.371 L 652.285 960.241 649.180 954.815 L 646.076 949.389 644.538 943.485 L 643 937.580 643.012 932.040 L 643.024 926.500 644.390 921.368 L 645.757 916.237 649.003 910.145 L 652.250 904.054 657.458 899.128 L 662.665 894.203 667.625 891.690 L 672.585 889.176 678.543 887.426 L 684.500 885.675 694 885.599 L 703.500 885.524 711 887.844 L 718.500 890.164 722.773 892.524 L 727.045 894.885 734.631 879.739 L 742.216 864.593 739.868 862.692 L 737.519 860.790 732.749 858.373 L 727.979 855.956 718.740 853.364 L 709.500 850.772 693.500 850.384 L 677.500 849.995 670.117 851.986 M 803.041 850.678 L 800.582 851.194 795.725 853.108 L 790.869 855.023 785.684 858.383 L 780.500 861.743 775.722 866.584 L 770.944 871.424 768.069 877.178 L 765.194 882.931 763.915 890.088 L 762.636 897.245 763.754 903.773 L 764.872 910.301 767.378 915.132 L 769.885 919.962 772.692 923.545 L 775.500 927.128 781.500 931.705 L 787.500 936.281 803.752 944.160 L 820.005 952.038 824.502 956.348 L 829 960.657 828.996 965.579 L 828.993 970.500 827.114 973.580 L 825.236 976.660 821.368 978.580 L 817.500 980.500 807.486 980.500 L 797.472 980.500 787.568 975.712 L 777.664 970.924 772.758 967.322 L 767.851 963.720 766.556 965.110 L 765.261 966.500 757.176 980.277 L 749.092 994.054 753.082 996.944 L 757.072 999.835 765.786 1004.316 L 774.500 1008.798 781 1010.774 L 787.500 1012.750 796.479 1014.011 L 805.458 1015.272 814.479 1014.643 L 823.500 1014.015 829.985 1012.464 L 836.470 1010.914 843.899 1007.340 L 851.328 1003.767 856.202 998.893 L 861.076 994.020 864.005 987.825 L 866.935 981.630 868.080 976.114 L 869.225 970.597 868.790 962.049 L 868.354 953.500 865.593 948.117 L 862.832 942.734 858.231 937.816 L 853.630 932.898 846.565 928.177 L 839.500 923.457 827.958 918.245 L 816.415 913.033 810.712 909.943 L 805.008 906.854 802.004 903.850 L 799 900.846 799 896.827 L 799 892.809 800.728 889.883 L 802.456 886.958 806.544 884.979 L 810.631 883 817.889 883 L 825.147 883 832.824 885.566 L 840.500 888.133 844.876 890.566 L 849.252 893 849.904 893 L 850.557 893 857.528 878.943 L 864.500 864.886 862 862.942 L 859.500 860.999 854.386 858.534 L 849.272 856.070 840.386 853.397 L 831.500 850.724 818.500 850.443 L 805.500 850.163 803.041 850.678 M 506.284 853.250 L 505.323 854.500 474.055 932 L 442.788 1009.500 442.287 1010.750 L 441.786 1012 461.306 1012 L 480.825 1012 483.368 1005.250 L 485.911 998.500 489.234 989.500 L 492.557 980.500 523.029 980.241 L 553.500 979.983 559.358 995.991 L 565.216 1012 584.715 1012 L 604.214 1012 603.543 1010.250 L 602.872 1008.500 571.307 930.250 L 539.742 852 523.493 852 L 507.245 852 506.284 853.250 M 923 853.282 L 923 854.605 955.906 933.053 L 988.812 1011.500 1003.218 1011.776 L 1017.624 1012.051 1050.831 932.776 L 1084.038 853.500 1084.019 852.729 L 1084 851.959 1063.756 852.229 L 1043.512 852.500 1023.514 904.674 L 1003.515 956.848 1003.237 956.571 L 1002.959 956.293 983.038 904.396 L 963.116 852.500 943.058 852.229 L 923 851.959 923 853.282 M 1091 932 L 1091 1012 1109 1012 L 1127 1012 1127 932 L 1127 852 1109 852 L 1091 852 1091 932 M 1150.677 852.657 L 1150 853.333 1150 932.667 L 1150 1012 1196 1012 L 1242 1012 1242 996 L 1242 980 1214.500 980 L 1187 980 1187 964 L 1187 948 1213 948 L 1239 948 1239 932 L 1239 916 1213 916 L 1187 916 1187 900 L 1187 884 1214.525 884 L 1242.051 884 1241.775 868.250 L 1241.500 852.500 1196.427 852.240 L 1151.353 851.980 1150.677 852.657 M 1248.734 852.729 L 1248.324 853.500 1270.912 932.748 L 1293.500 1011.997 1313.708 1011.998 L 1333.915 1012 1335.904 1005.250 L 1337.892 998.500 1348.568 961 L 1359.244 923.500 1359.493 923.212 L 1359.743 922.924 1371.005 962.712 L 1382.266 1002.500 1383.678 1007.271 L 1385.090 1012.041 1405.262 1011.771 L 1425.435 1011.500 1447.673 933.500 L 1469.912 855.500 1469.956 853.729 L 1470 851.958 1450.250 852.229 L 1430.500 852.500 1417 906.688 L 1403.500 960.877 1402.897 961.458 L 1402.295 962.039 1400.087 953.769 L 1397.879 945.500 1385.582 899 L 1373.286 852.500 1359.518 852.500 L 1345.750 852.500 1334.488 895 L 1323.226 937.500 1319.976 949.780 L 1316.727 962.061 1316.114 961.468 L 1315.500 960.876 1302 906.688 L 1288.500 852.500 1268.822 852.229 L 1249.144 851.958 1248.734 852.729 M 522.095 904.008 L 521.013 906.500 513.141 927 L 505.269 947.500 514.135 947.788 L 523 948.075 531.917 947.788 L 540.834 947.500 532.006 924.508 L 523.178 901.516 522.095 904.008" stroke="none" fill="#fbfbfb" fill-rule="evenodd"/><path d="M 0 960.001 L 0 1920.001 960.250 1919.751 L 1920.500 1919.500 1920.751 959.750 L 1921.001 -0 960.501 -0 L 0 0 0 960.001 M 0.498 960.500 L 0.498 1920.500 0.750 1440.167 L 1.002 959.835 0.750 480.167 L 0.498 0.500 0.498 960.500 M 781.791 421.983 L 779.083 422.805 776.127 424.909 L 773.172 427.014 771.086 431.323 L 769 435.631 769 602.316 L 769 769 602.316 769 L 435.631 769 431.250 771.121 L 426.868 773.242 424.184 777.298 L 421.500 781.354 421.500 960 L 421.500 1138.646 424.184 1142.702 L 426.868 1146.758 431.250 1148.879 L 435.631 1151 602.307 1151 L 768.983 1151 769.241 1318.823 L 769.500 1486.647 771.884 1490.126 L 774.269 1493.606 777.884 1496.053 L 781.500 1498.500 960 1498.500 L 1138.500 1498.500 1142.116 1496.053 L 1145.731 1493.606 1148.116 1490.126 L 1150.500 1486.647 1150.759 1318.823 L 1151.017 1151 1317.693 1151 L 1484.369 1151 1488.750 1148.879 L 1493.132 1146.758 1495.816 1142.702 L 1498.500 1138.646 1498.500 960 L 1498.500 781.354 1495.816 777.298 L 1493.132 773.242 1488.750 771.121 L 1484.369 769 1317.684 769 L 1151 769 1151 602.316 L 1151 435.631 1148.879 431.250 L 1146.758 426.868 1142.702 424.184 L 1138.646 421.500 961.573 421.330 L 784.500 421.161 781.791 421.983 M 670.117 851.986 L 662.734 853.977 655.112 857.273 L 647.490 860.568 641.575 864.494 L 635.661 868.420 629.678 873.958 L 623.696 879.497 619.723 884.875 L 615.750 890.253 611.890 897.877 L 608.031 905.500 605.965 913.500 L 603.898 921.500 603.898 932.500 L 603.898 943.500 605.957 951.442 L 608.016 959.384 611.532 966.498 L 615.047 973.613 621.347 981.580 L 627.646 989.546 634.224 994.781 L 640.802 1000.015 649.151 1004.447 L 657.500 1008.879 666.500 1011.592 L 675.500 1014.305 690.500 1014.326 L 705.500 1014.347 712.845 1012.667 L 720.190 1010.988 726.584 1008.430 L 732.978 1005.872 737.489 1003.350 L 742 1000.829 742 1000.402 L 742 999.975 734.494 984.988 L 726.987 970 726.620 970 L 726.252 970 721.876 972.436 L 717.500 974.871 710.020 976.936 L 702.540 979 695.020 978.983 L 687.500 978.965 680.826 977.551 L 674.153 976.136 668.362 973.318 L 662.571 970.500 657.428 965.371 L 652.285 960.241 649.180 954.815 L 646.076 949.389 644.538 943.485 L 643 937.580 643.012 932.040 L 643.024 926.500 644.390 921.368 L 645.757 916.237 649.003 910.145 L 652.250 904.054 657.458 899.128 L 662.665 894.203 667.625 891.690 L 672.585 889.176 678.543 887.426 L 684.500 885.675 694 885.599 L 703.500 885.524 711 887.844 L 718.500 890.164 722.773 892.524 L 727.045 894.885 734.631 879.739 L 742.216 864.593 739.868 862.692 L 737.519 860.790 732.749 858.373 L 727.979 855.956 718.740 853.364 L 709.500 850.772 693.500 850.384 L 677.500 849.995 670.117 851.986 M 803.041 850.678 L 800.582 851.194 795.725 853.108 L 790.869 855.023 785.684 858.383 L 780.500 861.743 775.722 866.584 L 770.944 871.424 768.069 877.178 L 765.194 882.931 763.915 890.088 L 762.636 897.245 763.754 903.773 L 764.872 910.301 767.378 915.132 L 769.885 919.962 772.692 923.545 L 775.500 927.128 781.500 931.705 L 787.500 936.281 803.752 944.160 L 820.005 952.038 824.502 956.348 L 829 960.657 828.996 965.579 L 828.993 970.500 827.114 973.580 L 825.236 976.660 821.368 978.580 L 817.500 980.500 807.486 980.500 L 797.472 980.500 787.568 975.712 L 777.664 970.924 772.758 967.322 L 767.851 963.720 766.556 965.110 L 765.261 966.500 757.176 980.277 L 749.092 994.054 753.082 996.944 L 757.072 999.835 765.786 1004.316 L 774.500 1008.798 781 1010.774 L 787.500 1012.750 796.479 1014.011 L 805.458 1015.272 814.479 1014.643 L 823.500 1014.015 829.985 1012.464 L 836.470 1010.914 843.899 1007.340 L 851.328 1003.767 856.202 998.893 L 861.076 994.020 864.005 987.825 L 866.935 981.630 868.080 976.114 L 869.225 970.597 868.790 962.049 L 868.354 953.500 865.593 948.117 L 862.832 942.734 858.231 937.816 L 853.630 932.898 846.565 928.177 L 839.500 923.457 827.958 918.245 L 816.415 913.033 810.712 909.943 L 805.008 906.854 802.004 903.850 L 799 900.846 799 896.827 L 799 892.809 800.728 889.883 L 802.456 886.958 806.544 884.979 L 810.631 883 817.889 883 L 825.147 883 832.824 885.566 L 840.500 888.133 844.876 890.566 L 849.252 893 849.904 893 L 850.557 893 857.528 878.943 L 864.500 864.886 862 862.942 L 859.500 860.999 854.386 858.534 L 849.272 856.070 840.386 853.397 L 831.500 850.724 818.500 850.443 L 805.500 850.163 803.041 850.678 M 506.284 853.250 L 505.323 854.500 474.055 932 L 442.788 1009.500 442.287 1010.750 L 441.786 1012 461.306 1012 L 480.825 1012 483.368 1005.250 L 485.911 998.500 489.234 989.500 L 492.557 980.500 523.029 980.241 L 553.500 979.983 559.358 995.991 L 565.216 1012 584.715 1012 L 604.214 1012 603.543 1010.250 L 602.872 1008.500 571.307 930.250 L 539.742 852 523.493 852 L 507.245 852 506.284 853.250 M 923 853.282 L 923 854.605 955.906 933.053 L 988.812 1011.500 1003.218 1011.776 L 1017.624 1012.051 1050.831 932.776 L 1084.038 853.500 1084.019 852.729 L 1084 851.959 1063.756 852.229 L 1043.512 852.500 1023.514 904.674 L 1003.515 956.848 1003.237 956.571 L 1002.959 956.293 983.038 904.396 L 963.116 852.500 943.058 852.229 L 923 851.959 923 853.282 M 1091 932 L 1091 1012 1109 1012 L 1127 1012 1127 932 L 1127 852 1109 852 L 1091 852 1091 932 M 1150.677 852.657 L 1150 853.333 1150 932.667 L 1150 1012 1196 1012 L 1242 1012 1242 996 L 1242 980 1214.500 980 L 1187 980 1187 964 L 1187 948 1213 948 L 1239 948 1239 932 L 1239 916 1213 916 L 1187 916 1187 900 L 1187 884 1214.525 884 L 1242.051 884 1241.775 868.250 L 1241.500 852.500 1196.427 852.240 L 1151.353 851.980 1150.677 852.657 M 1248.734 852.729 L 1248.324 853.500 1270.912 932.748 L 1293.500 1011.997 1313.708 1011.998 L 1333.915 1012 1335.904 1005.250 L 1337.892 998.500 1348.568 961 L 1359.244 923.500 1359.493 923.212 L 1359.743 922.924 1371.005 962.712 L 1382.266 1002.500 1383.678 1007.271 L 1385.090 1012.041 1405.262 1011.771 L 1425.435 1011.500 1447.673 933.500 L 1469.912 855.500 1469.956 853.729 L 1470 851.958 1450.250 852.229 L 1430.500 852.500 1417 906.688 L 1403.500 960.877 1402.897 961.458 L 1402.295 962.039 1400.087 953.769 L 1397.879 945.500 1385.582 899 L 1373.286 852.500 1359.518 852.500 L 1345.750 852.500 1334.488 895 L 1323.226 937.500 1319.976 949.780 L 1316.727 962.061 1316.114 961.468 L 1315.500 960.876 1302 906.688 L 1288.500 852.500 1268.822 852.229 L 1249.144 851.958 1248.734 852.729 M 522.095 904.008 L 521.013 906.500 513.141 927 L 505.269 947.500 514.135 947.788 L 523 948.075 531.917 947.788 L 540.834 947.500 532.006 924.508 L 523.178 901.516 522.095 904.008" stroke="none" fill="#0484b4" fill-rule="evenodd"/></svg>